<svg width="80" height="69" viewBox="0 0 80 69" fill="none" xmlns="http://www.w3.org/2000/svg">
<path d="M68.4389 3.59302C65.1503 1.51263 61.3405 0.404451 57.4492 0.396362C54.0852 0.431419 50.7762 1.2538 47.7872 2.79758C44.7982 4.34136 42.2122 6.56365 40.2364 9.28648C38.2607 6.56365 35.6747 4.34136 32.6857 2.79758C29.6967 1.2538 26.3877 0.431419 23.0237 0.396362C19.1324 0.404451 15.3226 1.51263 12.034 3.59302C1.47942 10.1755 -2.13335 24.759 3.95731 36.1459C8.93198 45.4521 29.9088 61.6056 37.4937 67.2423C38.2866 67.8319 39.2484 68.1503 40.2364 68.1503C41.2245 68.1503 42.1862 67.8319 42.9791 67.2423C50.5451 61.5678 71.5409 45.4521 76.5156 36.1459C82.663 24.7401 78.9935 10.1566 68.4389 3.59302ZM73.3757 34.4813C69.5927 41.4421 54.1201 54.4936 40.8417 64.3862C40.6689 64.5211 40.4558 64.5944 40.2364 64.5944C40.0171 64.5944 39.804 64.5211 39.6312 64.3862C26.3906 54.4936 10.8234 41.4421 7.09717 34.4813C1.89552 24.7022 4.94088 12.2183 13.9255 6.61944C16.6491 4.89917 19.8024 3.98139 23.0237 3.97134C25.8344 3.99591 28.5995 4.68364 31.0942 5.97865C33.5889 7.27366 35.7427 9.13937 37.3803 11.4239L40.2364 15.2069L43.0926 11.4239C44.7301 9.13937 46.8839 7.27366 49.3786 5.97865C51.8733 4.68364 54.6385 3.99591 57.4492 3.97134C60.6705 3.98139 63.8238 4.89917 66.5473 6.61944C75.532 12.1994 78.5773 24.6834 73.3757 34.4625V34.4813Z" fill="#4D4D4F"/>
</svg>
