<svg width="70" height="60" viewBox="0 0 70 60" fill="none" xmlns="http://www.w3.org/2000/svg">
<path d="M68.1304 29.1775C67.5087 31.1132 66.5974 32.9435 65.4274 34.6059C64.2405 36.3239 62.8117 37.8613 61.1853 39.1703L37.1591 58.6111C36.5489 59.1225 35.7778 59.4019 34.9818 59.4C34.1972 59.3879 33.4384 59.1172 32.8231 58.6299L8.79698 39.189C5.54581 36.6026 3.12983 33.1133 1.85189 29.1587C0.576711 25.1311 0.458463 20.8258 1.51055 16.7342C2.56263 12.6425 4.74271 8.92909 7.80215 6.01754C10.628 3.34523 14.1677 1.55029 17.9923 0.850185C21.8169 0.150078 25.7624 0.57484 29.3506 2.07302C31.5223 3.01256 33.449 4.4393 34.9818 6.24293C36.5093 4.4338 38.4374 3.00602 40.6129 2.07302C44.2108 0.558948 48.1713 0.125706 52.0111 0.826152C55.8509 1.5266 59.4039 3.33045 62.2364 6.01754C65.2896 8.93692 67.4611 12.6564 68.5033 16.7515C69.5454 20.8466 69.4162 25.1523 68.1304 29.1775Z" fill="#F05161"/>
</svg>
